<svg width="771" height="739" viewBox="0 0 771 739" fill="none" xmlns="http://www.w3.org/2000/svg">
<path d="M538.83 709.915C538.48 709.915 538.129 709.72 537.934 709.331L385.386 374.742C385.152 374.275 385.386 373.691 385.854 373.457C386.321 373.224 386.906 373.457 387.14 373.925L539.726 708.513C539.96 708.981 539.726 709.565 539.259 709.798C539.103 709.876 538.947 709.915 538.83 709.915Z" fill="#333333"/>
<path d="M770.009 455.469C769.931 455.469 769.893 455.469 769.815 455.43L386.049 375.288C385.542 375.171 385.191 374.665 385.308 374.158C385.425 373.652 385.932 373.302 386.438 373.419L770.204 453.561C770.711 453.678 771.061 454.184 770.945 454.729C770.867 455.158 770.477 455.469 770.009 455.469Z" fill="#333333"/>
<path d="M386.243 375.327C386.049 375.327 385.854 375.249 385.659 375.132C385.23 374.82 385.152 374.197 385.464 373.769L619.566 59.4691C619.877 59.0407 620.501 58.9629 620.929 59.2744C621.358 59.5859 621.436 60.209 621.124 60.6374L387.023 374.937C386.828 375.171 386.555 375.327 386.243 375.327Z" fill="#333333"/>
<path d="M386.243 375.327C385.815 375.327 385.464 375.054 385.308 374.665L266.66 1.25099C266.504 0.744746 266.777 0.19956 267.283 0.0437926C267.79 -0.111975 268.335 0.160618 268.491 0.666863L387.179 374.081C387.334 374.587 387.062 375.132 386.555 375.288C386.438 375.288 386.36 375.327 386.243 375.327Z" fill="#333333"/>
<path d="M386.243 375.327C386.087 375.327 385.932 375.288 385.815 375.21L36.8834 196.545C36.4158 196.311 36.221 195.727 36.4548 195.22C36.6886 194.753 37.273 194.558 37.7796 194.792L386.711 373.457C387.179 373.691 387.373 374.275 387.14 374.781C386.945 375.132 386.594 375.327 386.243 375.327Z" fill="#333333"/>
<path d="M0.957672 447.252C0.490092 447.252 0.100442 446.941 0.0225125 446.473C-0.0943824 445.928 0.256302 445.422 0.801812 445.344L386.088 373.418C386.633 373.302 387.14 373.652 387.218 374.197C387.295 374.742 386.984 375.249 386.438 375.327L1.11353 447.213C1.07457 447.252 0.996637 447.252 0.957672 447.252Z" fill="#333333"/>
<path d="M94.9412 637.405C94.6685 637.405 94.3957 637.289 94.2009 637.094C93.8502 636.704 93.8892 636.081 94.2788 635.731L385.581 373.652C385.971 373.302 386.594 373.341 386.945 373.73C387.295 374.119 387.256 374.742 386.867 375.093L95.5647 637.172C95.4088 637.289 95.175 637.405 94.9412 637.405Z" fill="#333333"/>
<path d="M240.592 738.966C240.475 738.966 240.359 738.927 240.242 738.888C239.735 738.693 239.501 738.109 239.696 737.642L385.347 374.003C385.542 373.496 386.127 373.263 386.594 373.457C387.101 373.652 387.334 374.236 387.14 374.704L241.489 738.343C241.333 738.732 240.982 738.966 240.592 738.966Z" fill="#333333"/>
<path d="M248.424 719.417C248.074 719.417 247.723 719.222 247.567 718.872C185.223 591.61 119.918 615.52 119.255 615.793L117.97 616.299L117.931 614.936C113.917 503.757 37.5069 440.866 36.7276 440.282C36.2989 439.931 36.26 439.347 36.5717 438.919C36.9224 438.49 37.5069 438.451 37.9355 438.763C38.7148 439.386 115.203 502.316 119.801 613.573C124.165 612.249 139.244 608.861 160.169 617.156C182.612 626.034 216.317 650.763 249.281 718.054C249.515 718.521 249.32 719.105 248.853 719.339C248.736 719.378 248.58 719.417 248.424 719.417Z" fill="#131313"/>
<path d="M256.841 697.493L256.607 695.701C256.49 694.689 242.891 595.387 149.531 588.144L148.479 588.066L148.635 587.015C148.752 586.236 160.324 509.637 126.425 465.243C112.826 447.447 93.6553 437.05 69.4581 434.363L66.6136 434.051L69.0684 432.571C69.6529 432.221 129.113 395.615 140.569 336.424C147.037 303.128 137.296 268.898 111.657 234.708L110.683 233.422L112.242 233.15C112.709 233.072 158.532 225.206 200.653 194.013C239.462 165.274 282.947 110.249 269.777 11.2591L269.465 8.80573L271.375 10.3634C271.959 10.8696 321.445 51.486 386.594 80.7314C446.6 107.64 532.518 130.11 601.174 84.2751L603.629 82.6395L602.616 85.4044C602.421 85.9885 581.809 143.895 590.42 217.534C598.33 285.449 633.437 380.973 755.67 450.562L757.385 451.536L755.553 452.276C753.099 453.288 510.892 554.031 523.361 672.804L523.517 674.361L522.036 673.816C520.4 673.193 355.383 614.157 258.165 696.363L256.841 697.493ZM150.739 586.353C237.904 593.752 256.022 680.397 258.282 693.793C351.604 616.572 504.775 665.872 521.296 671.519C515.88 609.212 579.159 552.629 633.476 516.024C686.936 480.002 742.344 455.781 752.982 451.263C631.411 381.363 596.381 285.76 588.472 217.69C580.873 152.579 595.992 99.6571 599.888 87.4294C530.881 131.706 445.509 109.315 385.737 82.4838C327.562 56.3538 281.778 21.1503 272.115 13.4788C284.389 111.924 240.787 166.871 201.861 195.688C163.753 223.882 122.606 233.189 114.229 234.824C139.517 269.054 149.064 303.362 142.556 336.852C132.192 390.241 83.5244 425.406 72.4194 432.844C95.9153 436.076 114.618 446.59 128.061 464.153C160.246 506.366 151.986 576.968 150.739 586.353Z" fill="#333333"/>
<path d="M275.115 651.892L274.882 650.101C274.765 649.244 263.465 563.883 182.69 558.392L181.638 558.315L181.794 557.263C181.911 556.601 192.315 491.412 163.636 453.094C152.064 437.634 135.621 428.521 114.774 425.951L111.969 425.601L114.385 424.16C114.891 423.848 166.793 391.955 176.495 340.98C181.872 312.747 173.495 283.852 151.557 255.113L150.583 253.828L152.181 253.594C152.57 253.516 191.263 247.364 227.11 221.312C260.114 197.323 297.403 151.021 287.506 66.7123L287.233 64.2979L289.104 65.8556C289.532 66.2061 331.264 100.825 386.438 125.553C437.249 148.334 510.152 167.104 569.106 127.345L571.6 125.67L570.587 128.474C570.392 128.98 552.819 178.32 560.222 241.016C567.041 298.845 597.122 380.155 701.743 439.23L703.496 440.243L701.626 440.983C699.522 441.839 492.15 526.265 503.684 629.695L503.879 631.253L502.398 630.707C500.995 630.162 360.643 578.448 276.557 650.685L275.115 651.892ZM183.859 556.523C258.828 562.287 274.453 635.77 276.518 648.115C356.903 580.706 486.305 623.075 501.502 628.371C497.605 585.34 530.57 539.155 596.966 494.645C642.243 464.309 689.196 444.059 698.976 439.97C595.018 380.545 565.015 299.156 558.196 241.172C551.767 186.381 564.274 141.675 567.781 130.499C508.516 168.74 436.158 149.97 385.542 127.306C336.68 105.421 298.338 75.7858 289.649 68.8152C298.689 152.579 261.283 198.803 228.124 222.908C196.055 246.195 161.688 253.75 154.012 255.23C175.56 284.008 183.742 312.981 178.365 341.369C169.676 387.048 127.75 417.579 117.58 424.393C137.764 427.431 153.778 436.699 165.195 451.964C192.354 488.219 185.106 547.878 183.859 556.523Z" fill="#333333"/>
<path d="M293.351 606.33L293.156 604.5C293.078 603.799 284.038 532.379 215.85 528.602L214.758 528.524L214.953 527.434C215.031 526.888 224.305 473.11 200.848 440.905C191.302 427.781 177.586 419.915 160.052 417.54L157.324 417.15L159.662 415.748C160.091 415.476 204.433 388.294 212.343 345.575C216.629 322.444 209.576 298.884 191.38 275.558L190.327 274.234L192.003 274C192.315 273.961 223.876 269.483 253.412 248.571C280.648 229.295 311.703 191.716 305.079 122.088L304.846 119.712L306.677 121.27C307.729 122.165 389.361 190.431 469.94 190.431C493.007 190.431 515.997 184.823 536.999 170.453L539.493 168.74L538.441 171.583C538.285 171.972 523.712 212.783 529.868 264.537C535.596 312.241 560.651 379.338 647.698 427.976L649.491 428.989L647.581 429.728C645.828 430.39 473.33 498.539 483.89 586.625L484.084 588.222L482.565 587.638C481.396 587.17 365.709 542.816 294.793 605.084L293.351 606.33ZM217.018 526.694C279.791 530.86 292.922 591.259 294.832 602.475C362.319 544.919 467.992 580.317 481.786 585.301C478.279 548.657 505.437 509.949 560.495 473.304C597.589 448.615 636.126 432.338 645.01 428.716C558.663 379.766 533.687 312.591 527.959 264.732C522.66 220.182 532.596 183.655 535.752 173.647C486.227 205.813 426.845 190.742 385.425 172.206C345.876 154.487 314.898 130.421 307.261 124.268C313.067 193.39 281.895 230.891 254.542 250.206C228.474 268.626 200.848 274.467 193.951 275.674C211.758 299.04 218.616 322.677 214.291 345.964C207.238 384.011 172.014 409.868 162.896 416.021C179.768 418.903 193.055 426.886 202.485 439.814C224.461 470.072 218.187 518.866 217.018 526.694Z" fill="#333333"/>
<path d="M311.625 560.729L311.431 558.821C311.353 558.237 304.612 500.836 249.009 498.733L247.879 498.695L248.113 497.565C248.19 497.137 256.256 454.768 238.06 428.638C230.539 417.89 219.551 411.27 205.329 409.011L202.718 408.583L204.978 407.22C205.368 406.986 242.112 384.517 248.229 350.092C251.425 332.062 245.697 313.798 231.241 295.885L230.111 294.483L231.864 294.289C232.838 294.172 329.082 282.489 322.691 177.385L322.536 175.088L324.289 176.606C325.107 177.307 386.984 230.307 449.951 230.307C468.693 230.307 487.513 225.634 504.853 213.484L507.385 211.693L506.333 214.614C506.217 214.925 494.605 247.169 499.592 287.98C504.19 325.598 524.257 378.481 593.693 416.644L595.563 417.656L593.576 418.396C592.173 418.903 454.51 470.734 464.095 543.439L464.329 545.113L462.771 544.451C461.874 544.062 370.813 507.067 313.028 559.366L311.625 560.729ZM250.178 496.864C300.793 499.434 311.431 546.866 313.106 556.796C367.657 509.092 449.834 537.52 462.03 542.154C454.939 473.577 574.171 424.043 591.004 417.384C522.27 378.87 502.32 325.948 497.722 288.175C493.553 253.75 500.995 225.361 503.684 216.716C432.456 263.563 338.667 190.859 324.796 179.566C329.393 276.765 246.788 293.977 233.773 296.041C247.84 313.993 253.295 332.296 250.1 350.482C244.723 380.934 216.044 402.158 208.057 407.571C221.616 410.257 232.254 416.994 239.618 427.587C256.607 451.964 251.308 489.933 250.178 496.864Z" fill="#333333"/>
<path d="M329.9 515.206L329.705 513.22C329.549 511.428 325.146 469.371 282.168 468.982H280.96L281.233 467.814C281.311 467.502 288.169 436.504 275.193 416.527C269.699 408.116 261.439 402.742 250.567 400.639L248.074 400.172L250.256 398.886C250.567 398.692 279.791 380.934 284.038 354.882C286.142 341.915 281.778 328.986 271.063 316.447L269.777 314.967L271.725 314.85C272.427 314.811 340.46 309.943 340.304 232.877V230.658L341.94 232.137C342.486 232.644 384.763 270.417 430.079 270.417C444.418 270.417 459.069 266.64 472.785 256.671L475.395 254.802L474.265 257.8C473.915 258.735 440.561 352.507 539.765 405.507L541.753 406.558L539.648 407.259C538.596 407.609 435.807 443.163 444.418 500.486L444.691 502.277L443.054 501.537C442.392 501.226 375.996 471.591 331.381 513.921L329.9 515.206ZM283.337 467.035C321.795 468.086 329.939 502.628 331.342 511.156C372.956 473.382 431.793 494.8 442.197 499.045C436.08 445.734 522.348 411.504 536.882 406.13C448.042 357.374 466.784 275.869 471.538 259.864C418.351 295.496 353.24 244.17 342.213 234.902C341.239 304.608 284.74 315.123 273.674 316.524C283.921 329.103 288.052 342.07 285.909 355.155C282.168 378.053 259.958 394.642 253.178 399.237C263.465 401.768 271.375 407.22 276.791 415.476C288.948 434.129 284.545 461.038 283.337 467.035Z" fill="#333333"/>
<path d="M348.097 469.761L347.941 467.58C347.863 466.373 345.681 437.906 315.327 439.152L313.963 439.191L314.353 437.906C314.392 437.712 320.042 418.085 312.288 404.338C308.859 398.263 303.287 394.136 295.767 392.15L293.546 391.565L295.533 390.397C295.767 390.28 317.47 377.196 319.847 359.672C320.899 351.806 317.899 344.134 310.924 336.852L309.21 335.061L311.703 335.217C313.34 335.294 351.954 337.086 357.955 288.136L358.189 286.15L359.591 287.552C360.02 287.98 402.219 329.531 440.677 299.779L443.405 297.677L442.197 300.87C441.963 301.454 420.26 361.23 485.76 394.175L488.02 395.304L485.604 395.966C484.903 396.161 417.026 415.398 424.663 457.338L425.014 459.324L423.221 458.351C422.792 458.117 381.1 435.881 349.655 468.164L348.097 469.761ZM317.275 437.166C342.953 437.166 348.525 458.662 349.655 465.438C378.217 437.751 414.181 452.003 422.403 455.82C417.337 417.968 470.836 398.614 482.721 394.798C426.338 365.085 435.963 315.434 439.431 303.051C404.323 327.545 367.189 297.054 359.591 290.2C353.552 332.374 322.497 336.696 313.807 337.086C320.159 344.329 322.847 352 321.756 359.906C319.652 375.482 303.793 387.243 298.338 390.903C305.352 393.24 310.612 397.407 314.002 403.404C321.094 415.982 317.743 432.493 316.574 437.205C316.808 437.166 317.042 437.166 317.275 437.166Z" fill="#333333"/>
<path d="M366.215 424.627L366.254 421.862C366.254 421.784 366.254 415.593 361.89 411.854C358.851 409.245 354.37 408.388 348.603 409.323L346.733 409.634L347.59 407.921C347.629 407.843 351.798 399.471 349.227 392.111C347.941 388.411 345.135 385.529 340.888 383.582L339.174 382.803L340.771 381.869C340.927 381.791 355.149 373.418 355.5 365.007C355.617 362.164 354.058 359.555 350.863 357.297C350.824 357.297 350.824 357.258 350.824 357.258L351.954 355.7C351.954 355.7 351.954 355.7 351.993 355.7C352.227 355.856 355.656 358.153 360.526 357.102C365.904 355.934 371.008 351.222 375.606 343.083L376.424 341.681L377.281 343.044C377.32 343.122 381.645 349.82 389.361 350.871C395.322 351.689 401.751 348.963 408.492 342.849L411.649 339.967L410.051 343.901C409.622 344.952 399.959 369.836 431.677 382.803L435.417 384.322L431.404 384.673C431.248 384.673 414.61 386.191 407.362 396.355C403.933 401.106 403.115 407.103 404.869 414.152L405.609 417.189L403.271 415.125C403.193 415.086 396.842 409.518 387.88 410.219C380.905 410.764 374.203 414.892 367.969 422.446L366.215 424.627ZM352.889 407.025C357.137 407.025 360.565 408.155 363.176 410.413C366.449 413.217 367.579 417.072 367.969 419.526C374.125 412.633 380.788 408.895 387.724 408.349C394.426 407.804 399.647 410.413 402.414 412.166C401.284 405.623 402.414 399.977 405.765 395.304C411.532 387.243 422.286 384.322 427.819 383.31C404.323 372.172 405.687 353.831 407.323 346.471C401.011 351.494 394.855 353.636 389.088 352.857C382.542 351.962 378.333 347.6 376.58 345.419C371.865 353.286 366.605 357.881 360.916 359.088C358.89 359.516 357.098 359.477 355.617 359.205C356.981 361.035 357.604 363.06 357.487 365.202C357.137 372.99 347.123 380.194 343.265 382.726C347.123 384.867 349.733 387.827 351.058 391.565C353.201 397.718 351.214 404.26 350.006 407.22C351.019 407.064 351.954 407.025 352.889 407.025Z" fill="#333333"/>
</svg>
